<?xml version="1.0" encoding="utf-8"?>
<!-- Generator: Adobe Illustrator 25.3.1, SVG Export Plug-In . SVG Version: 6.00 Build 0)  -->
<svg version="1.1" xmlns="http://www.w3.org/2000/svg" xmlns:xlink="http://www.w3.org/1999/xlink" x="0px" y="0px"
	 viewBox="0 0 148.78 139.17" style="enable-background:new 0 0 148.78 139.17;" xml:space="preserve">
<style type="text/css">
	.st0{fill:#F9D641;}
	.st1{display:none;}
	.st2{display:inline;}
	.st3{fill:#42BFEC;}
	.st4{fill:#ADE0F3;}
	.st5{fill:#FAAF40;}
</style>
<g id="Layer_1">
	<g>
		
			<ellipse transform="matrix(0.2327 -0.9725 0.9725 0.2327 -11.6423 121.7699)" class="st0" cx="71.35" cy="68.26" rx="29.89" ry="29.89"/>
		<g>
			<path class="st0" d="M71.35,30.27c-2.08,0-3.77-1.69-3.77-3.77V10.12c0-2.08,1.69-3.77,3.77-3.77s3.77,1.69,3.77,3.77v16.39
				C75.12,28.59,73.43,30.27,71.35,30.27z"/>
		</g>
		<g>
			<path class="st0" d="M71.35,131.01c-2.08,0-3.77-1.69-3.77-3.77v-16.39c0-2.08,1.69-3.77,3.77-3.77s3.77,1.69,3.77,3.77v16.39
				C75.12,129.32,73.43,131.01,71.35,131.01z"/>
		</g>
		<g>
			<path class="st0" d="M129.92,72.45h-16.39c-2.08,0-3.77-1.69-3.77-3.77c0-2.08,1.69-3.77,3.77-3.77h16.39
				c2.08,0,3.77,1.69,3.77,3.77C133.68,70.76,132,72.45,129.92,72.45z"/>
		</g>
		<g>
			<path class="st0" d="M12.79,72.45h16.39c2.08,0,3.77-1.69,3.77-3.77c0-2.08-1.69-3.77-3.77-3.77H12.79
				c-2.08,0-3.77,1.69-3.77,3.77C9.02,70.76,10.71,72.45,12.79,72.45z"/>
		</g>
		<g>
			<path class="st0" d="M41.53,42.63c-0.96,0-1.93-0.37-2.66-1.1L27.28,29.93c-1.47-1.47-1.47-3.86,0-5.33
				c1.47-1.47,3.86-1.47,5.33,0L44.2,36.19c1.47,1.47,1.47,3.86,0,5.33C43.46,42.26,42.5,42.63,41.53,42.63z"/>
		</g>
		<g>
			<path class="st0" d="M112.76,113.86c-0.96,0-1.93-0.37-2.66-1.1l-11.59-11.59c-1.47-1.47-1.47-3.86,0-5.33
				c1.47-1.47,3.86-1.47,5.33,0l11.59,11.59c1.47,1.47,1.47,3.86,0,5.33C114.69,113.49,113.73,113.86,112.76,113.86z"/>
		</g>
		<g>
			<path class="st0" d="M29.94,113.86c-0.96,0-1.93-0.37-2.66-1.1c-1.47-1.47-1.47-3.86,0-5.33l11.59-11.59
				c1.47-1.47,3.86-1.47,5.33,0c1.47,1.47,1.47,3.86,0,5.33l-11.59,11.59C31.87,113.49,30.91,113.86,29.94,113.86z"/>
		</g>
		<g>
			<path class="st0" d="M101.17,42.63c-0.96,0-1.93-0.37-2.66-1.1c-1.47-1.47-1.47-3.86,0-5.33L110.1,24.6
				c1.47-1.47,3.86-1.47,5.33,0c1.47,1.47,1.47,3.86,0,5.33l-11.59,11.59C103.1,42.26,102.14,42.63,101.17,42.63z"/>
		</g>
	</g>
</g>
<g id="Layer_2" class="st1">
	<g class="st2">
		<path class="st3" d="M110.93,40.69c-0.01,0-0.03,0-0.04,0c0.01-0.25,0.04-0.5,0.04-0.75c0-20.02-16.23-36.25-36.25-36.25
			c-20.02,0-36.25,16.23-36.25,36.25c0,0.02,0,0.05,0,0.07c-15.71,0.73-28.23,13.66-28.23,29.54c0,16.36,13.26,29.61,29.61,29.61
			h71.12c16.15,0,29.24-13.09,29.24-29.24C140.16,53.78,127.07,40.69,110.93,40.69z"/>
		<g>
			<g>
				<path class="st4" d="M32.51,82.93c-1.39,0-2.51-1.12-2.51-2.51V63.7c0-1.39,1.12-2.51,2.51-2.51c1.39,0,2.51,1.12,2.51,2.51
					v16.72C35.02,81.8,33.9,82.93,32.51,82.93z"/>
			</g>
			<g>
				<path class="st4" d="M32.51,130.93c-1.39,0-2.51-1.12-2.51-2.51V94.1c0-1.39,1.12-2.51,2.51-2.51c1.39,0,2.51,1.12,2.51,2.51
					v34.32C35.02,129.8,33.9,130.93,32.51,130.93z"/>
			</g>
			<g>
				<path class="st4" d="M53.84,73.42c-1.39,0-2.51-1.12-2.51-2.51V46.54c0-1.39,1.12-2.51,2.51-2.51c1.39,0,2.51,1.12,2.51,2.51
					v24.37C56.35,72.3,55.23,73.42,53.84,73.42z"/>
			</g>
			<g>
				<path class="st4" d="M53.84,101.42c-1.39,0-2.51-1.12-2.51-2.51V83.03c0-1.39,1.12-2.51,2.51-2.51c1.39,0,2.51,1.12,2.51,2.51
					v15.88C56.35,100.3,55.23,101.42,53.84,101.42z"/>
			</g>
			<g>
				<path class="st4" d="M53.84,130.93c-1.39,0-2.51-1.12-2.51-2.51v-12.7c0-1.39,1.12-2.51,2.51-2.51c1.39,0,2.51,1.12,2.51,2.51
					v12.7C56.35,129.8,55.23,130.93,53.84,130.93z"/>
			</g>
			<g>
				<path class="st4" d="M75.18,130.93c-1.39,0-2.51-1.12-2.51-2.51V94.1c0-1.39,1.12-2.51,2.51-2.51c1.39,0,2.51,1.12,2.51,2.51
					v34.32C77.69,129.8,76.56,130.93,75.18,130.93z"/>
			</g>
			<g>
				<path class="st4" d="M96.51,130.93c-1.39,0-2.51-1.12-2.51-2.51v-12.7c0-1.39,1.12-2.51,2.51-2.51c1.39,0,2.51,1.12,2.51,2.51
					v12.7C99.03,129.8,97.9,130.93,96.51,130.93z"/>
			</g>
			<g>
				<path class="st4" d="M117.85,130.93c-1.39,0-2.51-1.12-2.51-2.51v-26.27c0-1.39,1.12-2.51,2.51-2.51c1.39,0,2.51,1.12,2.51,2.51
					v26.27C120.36,129.8,119.24,130.93,117.85,130.93z"/>
			</g>
			<g>
				<path class="st4" d="M117.85,87.7c-1.39,0-2.51-1.12-2.51-2.51v-11.9c0-1.39,1.12-2.51,2.51-2.51c1.39,0,2.51,1.12,2.51,2.51
					v11.9C120.36,86.57,119.24,87.7,117.85,87.7z"/>
			</g>
			<g>
				<path class="st4" d="M96.51,107.77c-1.39,0-2.51-1.12-2.51-2.51V54.15c0-1.39,1.12-2.51,2.51-2.51c1.39,0,2.51,1.12,2.51,2.51
					v51.11C99.03,106.65,97.9,107.77,96.51,107.77z"/>
			</g>
			<g>
				<path class="st4" d="M75.18,82.1c-1.39,0-2.51-1.12-2.51-2.51V64.53c0-1.39,1.12-2.51,2.51-2.51c1.39,0,2.51,1.12,2.51,2.51
					v15.06C77.69,80.97,76.56,82.1,75.18,82.1z"/>
			</g>
		</g>
	</g>
</g>
<g id="Layer_3" class="st1">
	<g class="st2">
		
			<ellipse transform="matrix(0.6533 -0.7571 0.7571 0.6533 85.2448 579.5076)" class="st5" cx="675.38" cy="196.68" rx="29.89" ry="29.89"/>
		<g>
			<path class="st5" d="M675.38,158.69c-2.08,0-3.77-1.69-3.77-3.77v-16.39c0-2.08,1.69-3.77,3.77-3.77c2.08,0,3.77,1.69,3.77,3.77
				v16.39C679.15,157,677.46,158.69,675.38,158.69z"/>
		</g>
		<g>
			<path class="st5" d="M633.21,200.86h-16.39c-2.08,0-3.77-1.69-3.77-3.77c0-2.08,1.69-3.77,3.77-3.77h16.39
				c2.08,0,3.77,1.69,3.77,3.77C636.97,199.17,635.29,200.86,633.21,200.86z"/>
		</g>
		<g>
			<path class="st5" d="M645.56,171.04c-0.96,0-1.93-0.37-2.66-1.1l-11.59-11.59c-1.47-1.47-1.47-3.86,0-5.33
				c1.47-1.47,3.86-1.47,5.33,0l11.59,11.59c1.47,1.47,1.47,3.86,0,5.33C647.49,170.67,646.52,171.04,645.56,171.04z"/>
		</g>
		<g>
			<path class="st5" d="M633.97,242.27c-0.96,0-1.93-0.37-2.66-1.1c-1.47-1.47-1.47-3.86,0-5.33l11.59-11.59
				c1.47-1.47,3.86-1.47,5.33,0c1.47,1.47,1.47,3.86,0,5.33l-11.59,11.59C635.9,241.9,634.93,242.27,633.97,242.27z"/>
		</g>
		<g>
			<path class="st5" d="M705.2,171.04c-0.96,0-1.93-0.37-2.66-1.1c-1.47-1.47-1.47-3.86,0-5.33l11.59-11.59
				c1.47-1.47,3.86-1.47,5.33,0c1.47,1.47,1.47,3.86,0,5.33l-11.59,11.59C707.13,170.67,706.16,171.04,705.2,171.04z"/>
		</g>
		<path class="st3" d="M758.59,208.3c-0.01,0-0.03,0-0.04,0c0.01-0.25,0.04-0.5,0.04-0.75c0-20.02-16.23-36.25-36.25-36.25
			c-20.02,0-36.25,16.23-36.25,36.25c0,0.02,0,0.05,0,0.07c-15.71,0.73-28.23,13.66-28.23,29.54c0,16.36,13.26,29.61,29.61,29.61
			h71.12c16.15,0,29.24-13.09,29.24-29.24C787.83,221.39,774.74,208.3,758.59,208.3z"/>
	</g>
	<g class="st2">
		
			<ellipse transform="matrix(0.6533 -0.7571 0.7571 0.6533 -28.6303 62.0973)" class="st0" cx="53.49" cy="62.31" rx="24.28" ry="24.28"/>
		<g>
			<path class="st0" d="M53.49,31.45c-1.69,0-3.06-1.37-3.06-3.06V15.08c0-1.69,1.37-3.06,3.06-3.06c1.69,0,3.06,1.37,3.06,3.06
				v13.31C56.55,30.08,55.18,31.45,53.49,31.45z"/>
		</g>
		<g>
			<path class="st0" d="M19.23,65.71H5.92c-1.69,0-3.06-1.37-3.06-3.06c0-1.69,1.37-3.06,3.06-3.06h13.31
				c1.69,0,3.06,1.37,3.06,3.06C22.29,64.34,20.92,65.71,19.23,65.71z"/>
		</g>
		<g>
			<path class="st0" d="M29.27,41.49c-0.78,0-1.57-0.3-2.16-0.9l-9.41-9.41c-1.2-1.19-1.2-3.13,0-4.33c1.2-1.2,3.13-1.2,4.33,0
				l9.41,9.41c1.2,1.19,1.2,3.13,0,4.33C30.83,41.19,30.05,41.49,29.27,41.49z"/>
		</g>
		<g>
			<path class="st0" d="M19.85,99.34c-0.78,0-1.57-0.3-2.16-0.9c-1.2-1.19-1.2-3.13,0-4.33l9.41-9.41c1.2-1.2,3.13-1.2,4.33,0
				c1.2,1.19,1.2,3.13,0,4.33l-9.41,9.41C21.42,99.04,20.64,99.34,19.85,99.34z"/>
		</g>
		<g>
			<path class="st0" d="M77.71,41.49c-0.78,0-1.57-0.3-2.16-0.9c-1.2-1.19-1.2-3.13,0-4.33l9.41-9.41c1.19-1.2,3.13-1.2,4.33,0
				c1.2,1.19,1.2,3.13,0,4.33l-9.41,9.41C79.28,41.19,78.49,41.49,77.71,41.49z"/>
		</g>
		<path class="st3" d="M121.07,71.75c-0.01,0-0.02,0-0.03,0c0-0.21,0.03-0.41,0.03-0.61c0-16.26-13.18-29.45-29.45-29.45
			c-16.26,0-29.45,13.18-29.45,29.45c0,0.02,0,0.04,0,0.06c-12.76,0.59-22.93,11.09-22.93,24c0,13.28,10.77,24.05,24.05,24.05h57.77
			c13.12,0,23.75-10.63,23.75-23.75C144.82,82.38,134.19,71.75,121.07,71.75z"/>
	</g>
</g>
</svg>
