<?xml version="1.0" encoding="utf-8"?>
<!-- Generator: Adobe Illustrator 25.3.1, SVG Export Plug-In . SVG Version: 6.00 Build 0)  -->
<svg version="1.1" id="Layer_1" xmlns="http://www.w3.org/2000/svg" xmlns:xlink="http://www.w3.org/1999/xlink" x="0px" y="0px"
	 viewBox="0 0 148.78 139.17" style="enable-background:new 0 0 148.78 139.17;" xml:space="preserve">
<style type="text/css">
	.st0{fill:#F9D641;}
</style>
<g>
	
		<ellipse transform="matrix(0.2327 -0.9725 0.9725 0.2327 -11.6423 121.7699)" class="st0" cx="71.35" cy="68.26" rx="29.89" ry="29.89"/>
	<g>
		<path class="st0" d="M71.35,30.27c-2.08,0-3.77-1.69-3.77-3.77V10.12c0-2.08,1.69-3.77,3.77-3.77s3.77,1.69,3.77,3.77v16.39
			C75.12,28.59,73.43,30.27,71.35,30.27z"/>
	</g>
	<g>
		<path class="st0" d="M71.35,131.01c-2.08,0-3.77-1.69-3.77-3.77v-16.39c0-2.08,1.69-3.77,3.77-3.77s3.77,1.69,3.77,3.77v16.39
			C75.12,129.32,73.43,131.01,71.35,131.01z"/>
	</g>
	<g>
		<path class="st0" d="M129.92,72.45h-16.39c-2.08,0-3.77-1.69-3.77-3.77c0-2.08,1.69-3.77,3.77-3.77h16.39
			c2.08,0,3.77,1.69,3.77,3.77C133.68,70.76,132,72.45,129.92,72.45z"/>
	</g>
	<g>
		<path class="st0" d="M12.79,72.45h16.39c2.08,0,3.77-1.69,3.77-3.77c0-2.08-1.69-3.77-3.77-3.77H12.79
			c-2.08,0-3.77,1.69-3.77,3.77C9.02,70.76,10.71,72.45,12.79,72.45z"/>
	</g>
	<g>
		<path class="st0" d="M41.53,42.63c-0.96,0-1.93-0.37-2.66-1.1L27.28,29.93c-1.47-1.47-1.47-3.86,0-5.33
			c1.47-1.47,3.86-1.47,5.33,0L44.2,36.19c1.47,1.47,1.47,3.86,0,5.33C43.46,42.26,42.5,42.63,41.53,42.63z"/>
	</g>
	<g>
		<path class="st0" d="M112.76,113.86c-0.96,0-1.93-0.37-2.66-1.1l-11.59-11.59c-1.47-1.47-1.47-3.86,0-5.33
			c1.47-1.47,3.86-1.47,5.33,0l11.59,11.59c1.47,1.47,1.47,3.86,0,5.33C114.69,113.49,113.73,113.86,112.76,113.86z"/>
	</g>
	<g>
		<path class="st0" d="M29.94,113.86c-0.96,0-1.93-0.37-2.66-1.1c-1.47-1.47-1.47-3.86,0-5.33l11.59-11.59
			c1.47-1.47,3.86-1.47,5.33,0c1.47,1.47,1.47,3.86,0,5.33l-11.59,11.59C31.87,113.49,30.91,113.86,29.94,113.86z"/>
	</g>
	<g>
		<path class="st0" d="M101.17,42.63c-0.96,0-1.93-0.37-2.66-1.1c-1.47-1.47-1.47-3.86,0-5.33L110.1,24.6
			c1.47-1.47,3.86-1.47,5.33,0c1.47,1.47,1.47,3.86,0,5.33l-11.59,11.59C103.1,42.26,102.14,42.63,101.17,42.63z"/>
	</g>
</g>
</svg>
