<?xml version="1.0" encoding="utf-8"?>
<!-- Generator: Adobe Illustrator 25.3.1, SVG Export Plug-In . SVG Version: 6.00 Build 0)  -->
<svg version="1.1" id="f3bef9ad-0239-4908-ae6d-7464f49c7d52"
	 xmlns="http://www.w3.org/2000/svg" xmlns:xlink="http://www.w3.org/1999/xlink" x="0px" y="0px" viewBox="0 0 859.11 632.68"
	 style="enable-background:new 0 0 859.11 632.68;" xml:space="preserve">
<style type="text/css">
	.st0{fill:#ADE0F3;}
	.st1{fill:#F9D641;}
</style>
<path class="st0" d="M627.93,632.15H269.84c-77.25,0-140.1-63.91-140.1-142.46s62.85-142.46,140.1-142.46h25.47
	c14.02-28.58,35.61-52.75,62.43-69.89c27.21-17.4,58.83-26.65,91.13-26.66c89.59,0,164.27,70.45,171.22,160.91h7.82
	c59.86,0,108.56,49.47,108.56,110.27S687.79,632.15,627.93,632.15z M269.84,353.24c-73.94,0-134.1,61.21-134.1,136.46
	c0,75.24,60.16,136.46,134.1,136.46h358.08c56.55,0,102.56-46.78,102.56-104.27S684.48,417.6,627.93,417.6h-13.45l-0.17-2.82
	c-5.41-88.65-78.07-158.1-165.42-158.1c-62.9,0-121.38,37.23-148.98,94.84l-0.82,1.7L269.84,353.24z"/>
<g>
	
		<ellipse transform="matrix(0.2327 -0.9725 0.9725 0.2327 -41.7966 383.4248)" class="st1" cx="222.1" cy="218.2" rx="48.77" ry="48.77"/>
	<g>
		<path class="st1" d="M222.1,156.21c-3.4,0-6.15-2.75-6.15-6.15v-26.74c0-3.4,2.75-6.15,6.15-6.15c3.4,0,6.15,2.75,6.15,6.15v26.74
			C228.25,153.46,225.5,156.21,222.1,156.21z"/>
	</g>
	<g>
		<path class="st1" d="M222.1,320.58c-3.4,0-6.15-2.75-6.15-6.15v-26.74c0-3.4,2.75-6.15,6.15-6.15c3.4,0,6.15,2.75,6.15,6.15v26.74
			C228.25,317.83,225.5,320.58,222.1,320.58z"/>
	</g>
	<g>
		<path class="st1" d="M317.66,225.03h-26.74c-3.4,0-6.15-2.75-6.15-6.15c0-3.4,2.75-6.15,6.15-6.15h26.74
			c3.4,0,6.15,2.75,6.15,6.15C323.8,222.27,321.05,225.03,317.66,225.03z"/>
	</g>
	<g>
		<path class="st1" d="M126.55,225.03h26.74c3.4,0,6.15-2.75,6.15-6.15c0-3.4-2.75-6.15-6.15-6.15h-26.74
			c-3.4,0-6.15,2.75-6.15,6.15C120.4,222.27,123.15,225.03,126.55,225.03z"/>
	</g>
	<g>
		<path class="st1" d="M173.45,176.37c-1.57,0-3.15-0.6-4.35-1.8l-18.91-18.91c-2.4-2.4-2.4-6.29,0-8.69c2.4-2.4,6.29-2.4,8.69,0
			l18.91,18.91c2.4,2.4,2.4,6.29,0,8.69C176.59,175.77,175.02,176.37,173.45,176.37z"/>
	</g>
	<g>
		<path class="st1" d="M289.67,292.59c-1.57,0-3.15-0.6-4.35-1.8l-18.91-18.91c-2.4-2.4-2.4-6.29,0-8.69c2.4-2.4,6.29-2.4,8.69,0
			l18.91,18.91c2.4,2.4,2.4,6.29,0,8.69C292.81,291.99,291.24,292.59,289.67,292.59z"/>
	</g>
	<g>
		<path class="st1" d="M154.54,292.59c-1.57,0-3.15-0.6-4.35-1.8c-2.4-2.4-2.4-6.29,0-8.69l18.91-18.91c2.4-2.4,6.29-2.4,8.69,0
			c2.4,2.4,2.4,6.29,0,8.69l-18.91,18.91C157.68,291.99,156.11,292.59,154.54,292.59z"/>
	</g>
	<g>
		<path class="st1" d="M270.76,176.37c-1.57,0-3.15-0.6-4.35-1.8c-2.4-2.4-2.4-6.29,0-8.69l18.91-18.91c2.4-2.4,6.29-2.4,8.69,0
			c2.4,2.4,2.4,6.29,0,8.69l-18.91,18.91C273.91,175.77,272.33,176.37,270.76,176.37z"/>
	</g>
</g>
</svg>
